<svg xmlns="http://www.w3.org/2000/svg" width="788" height="338" fill="none" xmlns:v="https://vecta.io/nano"><g clip-path="url(#A)"><g fill-rule="evenodd"><path d="M787 338H0V174c-.004-11.758 1.179-23.506 3.531-35.047a173.04 173.04 0 0 1 26.185-62.238 174.53 174.53 0 0 1 76.555-63.041c10.526-4.449 21.467-7.845 32.662-10.139C150.474 1.182 162.222-.003 174 0h613v338h0z" fill="#afaac1"/><path d="M788 338H16V174a161.05 161.05 0 0 1 3.243-32.205c4.189-20.481 12.373-39.935 24.083-57.252a160.47 160.47 0 0 1 70.4-57.969c9.679-4.091 19.739-7.214 30.033-9.323A161.22 161.22 0 0 1 176 14h612v324h0z" fill="#000"/><path d="M787 338H77V168c-.03-19.127 5.683-37.825 16.399-53.672a96.29 96.29 0 0 1 42.233-34.784A95.4 95.4 0 0 1 173 72h614v266h0z" fill="#1e1e1e"/><path d="M767.8 133H334c-27.614 0-50-22.386-50-50s22.386-50 50-50h433.8c6.59-.012 13.117 1.287 19.2 3.821v92.358c-6.083 2.534-12.61 3.833-19.2 3.821h0z" fill="#000"/><path d="M496 86a8.67 8.67 0 0 1 2.636-6.364C500.393 77.879 502.515 77 505 77h97c2.485 0 4.607.879 6.364 2.636A8.67 8.67 0 0 1 611 86a8.67 8.67 0 0 1-2.636 6.364C606.607 94.121 604.485 95 602 95h-97c-2.485 0-4.607-.879-6.364-2.636A8.67 8.67 0 0 1 496 86h0z" fill="#2b2b29"/></g><circle cx="657" cy="86" r="17" fill="#171717"/><circle cx="657" cy="86" r="16" stroke="#2b2b29" stroke-width="2"/><circle cx="657" cy="86" r="6" fill="#232a5e"/><path fill-rule="evenodd" d="M781 303H125c-8.837 0-16-7.163-16-16v-42c0-8.837 7.163-16 16-16h656a15.84 15.84 0 0 1 7 1.608v70.783a15.84 15.84 0 0 1-7 1.609h0z" fill="#323234"/><path d="M605.169 276.154l5.759-16.645h2.205l-7.827 21.465c-.16.421-.365.888-.616 1.401a6.47 6.47 0 0 1-.957 1.47c-.387.478-.877.866-1.469 1.162-.581.307-1.293.461-2.137.461a5.3 5.3 0 0 1-.837-.085c-.33-.046-.57-.091-.718-.137l-.017-1.726c.126.034.308.063.547.085l.496.035c.74 0 1.361-.126 1.862-.376.513-.251.94-.627 1.282-1.128.342-.49.644-1.105.906-1.846l1.521-4.136zm-5.383-16.645l5.896 15.876.547 2.136-1.487.838-7.178-18.85h2.222zm15.141 9.536v-.564c0-1.344.194-2.586.581-3.726s.94-2.124 1.658-2.956a7.54 7.54 0 0 1 2.615-1.931c1.014-.467 2.142-.701 3.384-.701 1.253 0 2.386.234 3.4.701a7.54 7.54 0 0 1 2.615 1.931c.729.832 1.288 1.817 1.675 2.956s.581 2.382.581 3.726v.564c0 1.344-.194 2.586-.581 3.726-.387 1.127-.946 2.107-1.675 2.939a7.57 7.57 0 0 1-2.597 1.948c-1.014.456-2.142.684-3.384.684-1.254 0-2.387-.228-3.401-.684a7.74 7.74 0 0 1-2.615-1.948c-.729-.832-1.287-1.812-1.675-2.939-.387-1.14-.581-2.382-.581-3.726zm2.034-.564v.564a10.01 10.01 0 0 0 .41 2.888c.274.9.672 1.703 1.196 2.41.524.695 1.174 1.242 1.949 1.64s1.669.599 2.683.599c1.002 0 1.885-.2 2.649-.599a5.64 5.64 0 0 0 1.948-1.64c.524-.707.917-1.51 1.179-2.41.274-.911.41-1.874.41-2.888v-.564c0-1.003-.136-1.954-.41-2.854-.262-.9-.661-1.703-1.196-2.41a5.76 5.76 0 0 0-1.948-1.675c-.775-.41-1.664-.615-2.666-.615s-1.892.205-2.666.615a5.98 5.98 0 0 0-1.949 1.675c-.524.707-.923 1.51-1.196 2.41a10.16 10.16 0 0 0-.393 2.854zm30.557 5.247v-14.219h2.05V278h-1.965l-.085-4.272zm.376-3.418l1.059-.035c0 1.163-.137 2.233-.41 3.213s-.701 1.835-1.282 2.564-1.333 1.293-2.256 1.692-2.033.598-3.332.598c-.9 0-1.726-.126-2.478-.376-.741-.262-1.379-.672-1.914-1.231s-.952-1.281-1.248-2.17c-.285-.889-.427-1.965-.427-3.23v-11.826h2.034v11.86c0 .991.108 1.817.324 2.478.228.661.536 1.191.923 1.59.399.398.855.683 1.367.854s1.066.256 1.658.256c1.504 0 2.689-.29 3.555-.871a4.75 4.75 0 0 0 1.863-2.29c.376-.957.564-1.983.564-3.076zm9.057-7.742V278h-2.034v-18.491h1.983l.051 3.059zm6.546-3.196l-.052 1.88-.666-.085c-.217-.023-.45-.035-.701-.035-.889 0-1.669.166-2.341.496a4.7 4.7 0 0 0-1.675 1.35c-.456.57-.803 1.242-1.042 2.017a9.42 9.42 0 0 0-.411 2.461l-.752.29c0-1.208.126-2.33.376-3.367s.633-1.942 1.145-2.717a5.59 5.59 0 0 1 1.966-1.829c.797-.444 1.732-.666 2.802-.666a4.35 4.35 0 0 1 .77.068c.262.035.455.08.581.137zm5.246 4.085V278h-2.034v-18.491h1.949l.085 3.948zm-.461 4.152l-.906-.512c.068-1.094.291-2.119.666-3.076s.883-1.801 1.521-2.53a7.09 7.09 0 0 1 2.273-1.709c.878-.41 1.846-.615 2.906-.615.923 0 1.749.125 2.478.376s1.35.649 1.863 1.196.9 1.248 1.162 2.102c.273.855.41 1.897.41 3.128V278h-2.051v-12.048c0-1.276-.177-2.273-.53-2.991-.353-.729-.854-1.248-1.504-1.555s-1.418-.462-2.307-.462c-.98 0-1.84.217-2.58.65a5.96 5.96 0 0 0-1.846 1.657 8.05 8.05 0 0 0-1.128 2.171c-.262.763-.404 1.492-.427 2.187zm28.916 7.076v-9.537c0-.877-.183-1.634-.547-2.273a3.6 3.6 0 0 0-1.607-1.469c-.706-.342-1.578-.513-2.614-.513-.957 0-1.812.171-2.564.513-.74.33-1.327.78-1.76 1.35-.422.558-.632 1.179-.632 1.863l-2.051-.017c0-.695.171-1.368.513-2.017s.826-1.231 1.452-1.743 1.373-.917 2.239-1.214c.877-.307 1.84-.461 2.888-.461 1.322 0 2.484.222 3.486.666 1.014.445 1.806 1.111 2.376 2s.854 2.005.854 3.35v8.938a15.03 15.03 0 0 0 .137 1.982c.103.684.245 1.248.427 1.692V278h-2.17c-.137-.41-.245-.923-.325-1.538-.068-.627-.102-1.219-.102-1.777zm.478-7.452l.034 1.573h-4.016c-1.048 0-1.988.097-2.819.29-.821.182-1.516.456-2.085.821-.57.353-1.009.78-1.316 1.281a3.29 3.29 0 0 0-.445 1.709c0 .661.165 1.265.496 1.812.342.547.82.985 1.435 1.316.627.319 1.368.478 2.222.478 1.139 0 2.142-.211 3.008-.632.877-.422 1.601-.974 2.17-1.658s.952-1.43 1.145-2.239l.889 1.18c-.148.569-.422 1.156-.82 1.76-.388.592-.895 1.151-1.521 1.675-.627.512-1.367.934-2.222 1.264-.843.319-1.8.479-2.871.479-1.208 0-2.262-.228-3.162-.684-.888-.456-1.583-1.076-2.085-1.863-.49-.797-.734-1.697-.734-2.7 0-.911.193-1.726.581-2.444.387-.729.945-1.344 1.674-1.845.741-.513 1.63-.9 2.666-1.162 1.049-.274 2.222-.411 3.521-.411h4.255zm8.972-3.896V278h-2.05v-18.491h1.965l.085 3.828zm-.376 4.272l-.991-.512c.069-1.094.274-2.119.615-3.076.354-.958.844-1.801 1.47-2.53s1.379-1.299 2.256-1.709 1.874-.615 2.991-.615c.9 0 1.714.125 2.444.376.74.239 1.367.621 1.88 1.145.524.513.928 1.185 1.213 2.017s.427 1.828.427 2.99V278h-2.034v-12.236c0-1.231-.193-2.194-.581-2.889-.376-.694-.905-1.19-1.589-1.486-.672-.297-1.453-.445-2.341-.445-1.048 0-1.937.217-2.666.65a5.33 5.33 0 0 0-1.761 1.657c-.444.673-.774 1.396-.991 2.171-.216.763-.33 1.492-.342 2.187zm12.288-1.606l-1.367.034a7.71 7.71 0 0 1 .615-2.58 7.36 7.36 0 0 1 1.487-2.188c.627-.649 1.373-1.162 2.239-1.538.877-.376 1.862-.564 2.956-.564.957 0 1.812.131 2.564.393.752.251 1.384.655 1.897 1.213.524.547.923 1.248 1.196 2.102s.41 1.88.41 3.077V278h-2.051v-12.065c0-1.311-.193-2.325-.581-3.042-.376-.73-.9-1.237-1.572-1.521s-1.458-.428-2.358-.428c-.889.012-1.669.177-2.342.496-.672.308-1.236.718-1.692 1.23-.444.502-.786 1.043-1.025 1.624a5.26 5.26 0 0 0-.376 1.709zm24.336 12.339c-1.208 0-2.319-.222-3.333-.667-1.002-.444-1.879-1.071-2.631-1.88-.741-.809-1.316-1.766-1.726-2.871-.399-1.116-.599-2.335-.599-3.657v-.735c0-1.424.211-2.711.633-3.862s1.002-2.136 1.743-2.957 1.584-1.447 2.529-1.88c.957-.444 1.96-.666 3.008-.666 1.174 0 2.216.211 3.127.632.912.41 1.675.997 2.291 1.761.626.752 1.099 1.646 1.418 2.683.319 1.025.478 2.159.478 3.401v1.247h-13.996v-1.743h11.963v-.239c-.023-1.037-.234-2.006-.633-2.906a5.24 5.24 0 0 0-1.743-2.221c-.774-.57-1.743-.855-2.905-.855-.866 0-1.663.183-2.393.547-.717.365-1.338.889-1.862 1.572-.513.673-.912 1.476-1.197 2.41-.273.923-.41 1.948-.41 3.076v.735c0 1.025.148 1.983.445 2.871a7.46 7.46 0 0 0 1.298 2.324 6.12 6.12 0 0 0 2.017 1.573c.775.376 1.629.564 2.563.564 1.094 0 2.063-.2 2.906-.599.843-.41 1.6-1.053 2.273-1.931l1.281.992c-.398.592-.9 1.139-1.503 1.64-.593.501-1.305.9-2.137 1.196s-1.8.445-2.905.445zm10.784-1.59c0-.398.125-.734.376-1.008.262-.285.615-.427 1.059-.427.456 0 .815.137 1.077.41s.393.615.393 1.025a1.38 1.38 0 0 1-.393.992c-.262.273-.621.41-1.077.41-.444 0-.797-.137-1.059-.41-.251-.274-.376-.604-.376-.992zm13.689-3.076l4.46-14.167h1.436l-.855 3.811-4.665 14.68h-1.436l1.06-4.324zm-4.632-14.167l3.914 14.253.837 4.238h-1.487l-5.366-18.491h2.102zm16.082 14.201l3.811-14.201h2.102L779.366 278h-1.47l.923-4.29zm-5.264-14.201l4.392 14.048 1.111 4.443h-1.435l-4.769-14.697-.803-3.794h1.504zm26.353 15.176v-9.537c0-.877-.183-1.634-.547-2.273a3.6 3.6 0 0 0-1.607-1.469c-.706-.342-1.578-.513-2.614-.513-.957 0-1.812.171-2.564.513-.74.33-1.327.78-1.76 1.35-.422.558-.632 1.179-.632 1.863l-2.051-.017c0-.695.171-1.368.513-2.017s.826-1.231 1.452-1.743 1.373-.917 2.239-1.214c.877-.307 1.84-.461 2.888-.461 1.322 0 2.484.222 3.486.666 1.014.445 1.806 1.111 2.376 2s.854 2.005.854 3.35v8.938a15.03 15.03 0 0 0 .137 1.982c.103.684.245 1.248.427 1.692V278h-2.17c-.137-.41-.245-.923-.325-1.538-.068-.627-.102-1.219-.102-1.777zm.478-7.452l.034 1.573h-4.016c-1.048 0-1.988.097-2.82.29-.82.182-1.515.456-2.084.821-.57.353-1.009.78-1.316 1.281a3.29 3.29 0 0 0-.445 1.709c0 .661.165 1.265.496 1.812.342.547.82.985 1.435 1.316.627.319 1.368.478 2.222.478 1.139 0 2.142-.211 3.008-.632.877-.422 1.601-.974 2.17-1.658s.952-1.43 1.145-2.239l.889 1.18c-.148.569-.422 1.156-.82 1.76-.388.592-.895 1.151-1.521 1.675-.627.512-1.367.934-2.222 1.264-.843.319-1.8.479-2.871.479-1.208 0-2.262-.228-3.162-.684-.888-.456-1.583-1.076-2.085-1.863-.49-.797-.735-1.697-.735-2.7 0-.911.194-1.726.582-2.444.387-.729.945-1.344 1.674-1.845.741-.513 1.63-.9 2.666-1.162 1.049-.274 2.222-.411 3.521-.411h4.255zm12.219 8.802l5.931-16.526h2.102L813.716 278h-1.487l.376-1.965zm-5.366-16.526l5.999 16.577.324 1.914h-1.503l-6.939-18.491h2.119zm19.038 0V278h-2.033v-18.491h2.033zm-2.392-5.349c0-.388.119-.712.359-.974.25-.274.592-.411 1.025-.411s.775.137 1.025.411c.262.262.394.586.394.974a1.36 1.36 0 0 1-.394.974c-.25.262-.592.393-1.025.393s-.775-.131-1.025-.393c-.24-.274-.359-.598-.359-.974zm19.824 19.568v-14.219h2.051V278h-1.966l-.085-4.272zm.376-3.418l1.06-.035c0 1.163-.137 2.233-.411 3.213s-.7 1.835-1.281 2.564-1.333 1.293-2.256 1.692-2.034.598-3.333.598c-.9 0-1.726-.126-2.478-.376a4.86 4.86 0 0 1-1.914-1.231c-.535-.558-.951-1.281-1.247-2.17-.285-.889-.428-1.965-.428-3.23v-11.826h2.034v11.86c0 .991.108 1.817.325 2.478.228.661.535 1.191.923 1.59.398.398.854.683 1.367.854s1.065.256 1.658.256c1.503 0 2.688-.29 3.554-.871a4.75 4.75 0 0 0 1.863-2.29c.376-.957.564-1.983.564-3.076zm8.955-6.973V278h-2.051v-18.491h1.966l.085 3.828zm-.376 4.272l-.991-.512a11.15 11.15 0 0 1 .615-3.076c.353-.958.843-1.801 1.47-2.53s1.378-1.299 2.256-1.709 1.874-.615 2.99-.615c.9 0 1.715.125 2.444.376.741.239 1.367.621 1.88 1.145.524.513.929 1.185 1.214 2.017s.427 1.828.427 2.99V278h-2.034v-12.236c0-1.231-.194-2.194-.581-2.889-.376-.694-.906-1.19-1.589-1.486-.673-.297-1.453-.445-2.342-.445-1.048 0-1.937.217-2.666.65a5.34 5.34 0 0 0-1.76 1.657c-.444.673-.775 1.396-.991 2.171-.217.763-.331 1.492-.342 2.187zm12.288-1.606l-1.368.034a7.71 7.71 0 0 1 .616-2.58 7.34 7.34 0 0 1 1.487-2.188c.626-.649 1.372-1.162 2.238-1.538.878-.376 1.863-.564 2.957-.564.957 0 1.811.131 2.563.393.752.251 1.385.655 1.897 1.213.524.547.923 1.248 1.197 2.102s.41 1.88.41 3.077V278h-2.051v-12.065c0-1.311-.194-2.325-.581-3.042-.376-.73-.9-1.237-1.572-1.521s-1.459-.428-2.359-.428c-.888.012-1.669.177-2.341.496-.672.308-1.236.718-1.692 1.23-.444.502-.786 1.043-1.025 1.624-.228.581-.354 1.151-.376 1.709zm17.004 10.749c0-.398.125-.734.376-1.008.262-.285.615-.427 1.06-.427.455 0 .814.137 1.076.41s.393.615.393 1.025a1.38 1.38 0 0 1-.393.992c-.262.273-.621.41-1.076.41-.445 0-.798-.137-1.06-.41-.251-.274-.376-.604-.376-.992zm15.381-.17a6.15 6.15 0 0 0 2.427-.479 4.66 4.66 0 0 0 1.88-1.453c.501-.649.786-1.441.854-2.375h1.948c-.057 1.173-.416 2.222-1.076 3.144-.65.912-1.504 1.63-2.564 2.154-1.048.512-2.204.769-3.469.769-1.288 0-2.427-.234-3.418-.701-.98-.467-1.8-1.116-2.461-1.948-.661-.843-1.162-1.823-1.504-2.94-.33-1.128-.496-2.341-.496-3.64v-.717c0-1.299.166-2.507.496-3.624.342-1.127.843-2.107 1.504-2.939a6.8 6.8 0 0 1 2.461-1.965c.98-.467 2.113-.701 3.401-.701 1.321 0 2.506.268 3.555.803a6.34 6.34 0 0 1 2.529 2.273c.638.98.985 2.142 1.042 3.486h-1.948c-.057-.991-.319-1.845-.786-2.563s-1.082-1.27-1.846-1.658-1.612-.581-2.546-.581c-1.048 0-1.943.205-2.683.615-.741.399-1.345.952-1.812 1.658-.456.695-.792 1.493-1.008 2.393-.217.888-.325 1.823-.325 2.803v.717c0 .991.103 1.937.308 2.837.216.889.552 1.681 1.008 2.376a5.16 5.16 0 0 0 1.812 1.657c.752.399 1.657.599 2.717.599zm10.1-7.537v-.564c0-1.344.194-2.586.581-3.726s.94-2.124 1.658-2.956a7.54 7.54 0 0 1 2.615-1.931c1.014-.467 2.141-.701 3.383-.701 1.254 0 2.387.234 3.401.701a7.54 7.54 0 0 1 2.615 1.931c.729.832 1.287 1.817 1.675 2.956s.581 2.382.581 3.726v.564c0 1.344-.194 2.586-.581 3.726-.388 1.127-.946 2.107-1.675 2.939-.718.832-1.584 1.481-2.598 1.948-1.014.456-2.142.684-3.384.684-1.253 0-2.386-.228-3.4-.684a7.74 7.74 0 0 1-2.615-1.948c-.729-.832-1.288-1.812-1.675-2.939-.387-1.14-.581-2.382-.581-3.726zm2.034-.564v.564c0 1.014.136 1.977.41 2.888.273.9.672 1.703 1.196 2.41a5.64 5.64 0 0 0 1.948 1.64c.775.399 1.669.599 2.683.599 1.003 0 1.886-.2 2.649-.599.775-.398 1.425-.945 1.949-1.64.524-.707.917-1.51 1.179-2.41a10.01 10.01 0 0 0 .41-2.888v-.564c0-1.003-.137-1.954-.41-2.854-.262-.9-.661-1.703-1.196-2.41-.525-.706-1.174-1.264-1.949-1.675s-1.663-.615-2.666-.615-1.891.205-2.666.615a5.99 5.99 0 0 0-1.948 1.675c-.524.707-.923 1.51-1.196 2.41a10.16 10.16 0 0 0-.393 2.854z" fill="#84e575"/><g fill="#fff"><path d="M154.643 260.801L148.759 277h-2.405l6.775-17.773h1.55l-.036 1.574zM159.574 277l-5.896-16.199-.036-1.574h1.55L161.991 277h-2.417zm-.305-6.58v1.929h-9.985v-1.929h9.985zm11.682-9.619L165.067 277h-2.404l6.775-17.773h1.55l-.037 1.574zM175.883 277l-5.896-16.199-.037-1.574h1.55L178.3 277h-2.417zm-.305-6.58v1.929h-9.986v-1.929h9.986zm14.875-131.628h.278c1.172 0 2.178-.142 3.018-.425.85-.293 1.548-.713 2.095-1.26s.952-1.215 1.216-2.006c.263-.801.395-1.709.395-2.725v-4.043c0-.771-.078-1.45-.234-2.036-.147-.586-.362-1.069-.645-1.45-.273-.391-.596-.684-.967-.879-.361-.196-.761-.293-1.201-.293-.469 0-.884.117-1.245.351-.361.225-.669.533-.923.923-.244.391-.434.84-.571 1.348-.127.498-.19 1.02-.19 1.567s.063 1.07.19 1.568c.127.488.317.922.571 1.303.254.371.572.669.952.894.381.215.83.322 1.348.322.498 0 .942-.093 1.333-.278.4-.195.737-.449 1.011-.762.283-.312.498-.659.644-1.04.157-.381.235-.767.235-1.157l1.391.762c0 .683-.146 1.357-.439 2.021a6.2 6.2 0 0 1-1.231 1.816c-.517.538-1.118.967-1.801 1.29s-1.416.483-2.198.483c-.996 0-1.88-.181-2.651-.542-.772-.371-1.426-.879-1.963-1.523a6.91 6.91 0 0 1-1.201-2.286c-.274-.869-.41-1.811-.41-2.827 0-1.035.166-2.007.498-2.915a7.49 7.49 0 0 1 1.45-2.402c.635-.694 1.392-1.236 2.271-1.626.888-.401 1.875-.601 2.959-.601s2.07.21 2.958.63a6.57 6.57 0 0 1 2.286 1.787c.634.762 1.123 1.675 1.464 2.74.352 1.064.528 2.246.528 3.544v1.465c0 1.387-.152 2.676-.454 3.867-.293 1.192-.738 2.271-1.333 3.238a9.14 9.14 0 0 1-2.198 2.461c-.869.683-1.879 1.206-3.032 1.567s-2.441.542-3.867.542h-.337v-3.413zm14.575 1.172c0-.625.215-1.148.645-1.568.439-.419 1.02-.629 1.743-.629s1.299.21 1.729.629a2.08 2.08 0 0 1 .659 1.568 2.08 2.08 0 0 1-.659 1.567c-.43.42-1.006.63-1.729.63s-1.304-.21-1.743-.63a2.1 2.1 0 0 1-.645-1.567zm0-12.085c0-.625.215-1.148.645-1.567.439-.42 1.02-.63 1.743-.63s1.299.21 1.729.63c.439.419.659.942.659 1.567a2.08 2.08 0 0 1-.659 1.567c-.43.42-1.006.63-1.729.63s-1.304-.21-1.743-.63a2.1 2.1 0 0 1-.645-1.567zm23.072 6.152v3.311h-15.367l-.205-2.564 8.892-14.106h3.354l-3.632 6.079-4.424 7.28H228.1zm-2.417-13.359V142h-4.219v-21.328h4.219zm14.985-.044V142h-4.219v-16.509l-5.068 1.612v-3.326l8.833-3.149h.454z"/></g><path fill-rule="evenodd" d="M416.559 262.829v-2.8c.001-2.701-1.439-5.197-3.778-6.547s-5.221-1.351-7.559 0a7.56 7.56 0 0 0-3.778 6.548v2.799h-2.485v6.659c0 5.546 4.495 10.041 10.041 10.041s10.041-4.495 10.041-10.041v-6.659h-2.482zm-6.765 9.4v2.472h-1.587v-2.47c-1.396-.395-2.287-1.76-2.087-3.197a2.91 2.91 0 0 1 5.759 0 2.91 2.91 0 0 1-2.087 3.197l.002-.002zm5.179-9.4h-11.945v-2.8c0-3.298 2.674-5.972 5.972-5.972s5.972 2.674 5.972 5.972l.001 2.8z" fill="#80e770"/></g><defs><clipPath id="A"><path fill="#fff" d="M0 0h788v338H0z"/></clipPath></defs></svg>